<svg width="153" height="87" viewBox="0 0 153 87" xmlns="http://www.w3.org/2000/svg"><title>KAZUNARI NINOMIYA Copy</title><path d="M4.586 18.739L12.167.1h3.078L6.81 19.879 15.644 40h-3.078l-7.98-18.924V40H1.85V.1h2.736v18.639zM34.89 40h-2.85l-1.254-9.576h-6.555L22.977 40h-2.793l5.7-39.9h3.306l5.7 39.9zM24.516 27.916h5.985L27.537 4.489l-3.02 23.427zM40.286 40v-1.71l8.55-35.568h-8.494V.1H51.8v1.71l-8.55 35.568h8.664V40H40.285zM71.785.1v33.402c0 1.026-.094 1.976-.285 2.85-.19.874-.522 1.624-.997 2.252-.475.627-1.13 1.111-1.967 1.453-.836.342-1.88.513-3.135.513-1.33 0-2.403-.171-3.22-.513-.817-.342-1.463-.826-1.938-1.454-.475-.627-.798-1.377-.969-2.251a14.855 14.855 0 0 1-.257-2.85V.1h2.736v33.402c0 1.33.228 2.432.684 3.306.457.874 1.444 1.311 2.964 1.311s2.508-.437 2.964-1.311c.457-.874.684-1.976.684-3.306V.1h2.736zM82.94 6.484c.076 3.458.151 6.982.228 10.574.076 3.59.114 7.172.114 10.744V40H80.6V.1h2.907l9.235 33.573a15540.2 15540.2 0 0 1-.228-10.659c-.077-3.61-.115-7.163-.115-10.659V.1h2.68V40h-2.907L82.939 6.484zM116.719 40h-2.85l-1.254-9.576h-6.554L104.806 40h-2.793l5.7-39.9h3.306l5.7 39.9zm-10.373-12.084h5.984l-2.963-23.427-3.022 23.427zM123.823.1h5.814c1.369 0 2.49.171 3.363.513.875.342 1.568.807 2.081 1.397.513.589.864 1.31 1.055 2.166.19.855.285 1.795.285 2.821v8.835c0 1.71-.38 3.173-1.14 4.389-.76 1.216-2.014 1.976-3.763 2.28L138.19 40h-3.022a791.933 791.933 0 0 0-3.135-8.664 588.885 588.885 0 0 1-3.135-8.721h-2.336V40h-2.737V.1zm2.737 20.007h2.85c1.672 0 2.802-.38 3.391-1.14.589-.76.883-1.805.883-3.135V6.997c0-1.292-.284-2.327-.855-3.107-.57-.779-1.69-1.168-3.363-1.168h-2.907v17.385zM144.722.1h2.736V40h-2.736V.1zM3.124 52.484c.076 3.458.152 6.982.228 10.573.076 3.592.114 7.173.114 10.745V86H.786V46.1h2.907l9.234 33.573a15540.2 15540.2 0 0 1-.228-10.659c-.076-3.61-.114-7.163-.114-10.659V46.1h2.679V86h-2.907L3.123 52.484zm21.07-6.384h2.736V86h-2.736V46.1zm14.173 6.384c.076 3.458.152 6.982.228 10.573.076 3.592.114 7.173.114 10.745V86h-2.679V46.1h2.907l9.234 33.573a15540.2 15540.2 0 0 1-.228-10.659c-.076-3.61-.114-7.163-.114-10.659V46.1h2.679V86H47.6l-9.234-33.516zm26.941 31.635c1.444 0 2.422-.418 2.936-1.254.513-.836.769-1.919.769-3.249V52.484c0-1.33-.256-2.413-.77-3.249-.513-.836-1.491-1.254-2.935-1.254s-2.422.418-2.936 1.254c-.513.836-.769 1.919-.769 3.249v27.132c0 1.33.256 2.413.77 3.249.513.836 1.491 1.254 2.935 1.254zm0-38.589c1.254 0 2.299.171 3.135.513.836.342 1.491.817 1.967 1.425.475.608.816 1.34 1.025 2.194.21.856.314 1.796.314 2.822v27.132c0 1.026-.104 1.966-.314 2.822-.209.855-.55 1.586-1.025 2.194-.476.608-1.131 1.083-1.967 1.425-.836.342-1.881.513-3.135.513-1.254 0-2.299-.171-3.135-.513-.836-.342-1.491-.817-1.966-1.425-.476-.608-.817-1.34-1.027-2.195-.209-.855-.313-1.795-.313-2.821V52.484c0-1.026.104-1.966.313-2.822.21-.855.551-1.586 1.026-2.194.476-.608 1.131-1.083 1.967-1.425.836-.342 1.881-.513 3.135-.513zm24.775 35.511L96.067 46.1h3.762V86h-2.622V71.807c0-1.406.019-3.059.057-4.959l.114-5.843c.038-1.995.076-3.913.114-5.757.038-1.843.076-3.41.114-4.702L91.393 86h-2.679l-6.213-35.454c.038 1.33.076 2.926.114 4.788.038 1.862.076 3.781.114 5.757l.114 5.785c.038 1.882.057 3.525.057 4.931V86h-2.622V46.1h3.762l5.985 34.941h.057zM108.929 46.1h2.736V86h-2.736V46.1zM124.185 86V68.957l-5.7-22.857h2.85l4.218 18.981 4.218-18.981h2.907l-5.757 22.857V86h-2.736zm28.024 0h-2.85l-1.254-9.576h-6.555L140.296 86h-2.793l5.7-39.9h3.306l5.7 39.9zm-10.374-12.084h5.985l-2.964-23.427-3.021 23.427z" fill="#000" fill-rule="evenodd"/></svg>