<svg width="126" height="88" viewBox="0 0 126 88" xmlns="http://www.w3.org/2000/svg"><title>SHO SAKURAI Copy</title><path d="M44.805 11.93V7.541c0-1.292-.237-2.375-.712-3.249-.475-.874-1.434-1.311-2.879-1.311-1.52 0-2.507.427-2.964 1.282-.456.856-.684 1.948-.684 3.278v3.306c0 1.672.247 2.983.741 3.933a8.46 8.46 0 0 0 1.853 2.423 18.928 18.928 0 0 0 2.394 1.823 11.23 11.23 0 0 1 2.394 2.11c.741.855 1.358 1.947 1.852 3.277.495 1.33.741 3.097.741 5.301v4.845c0 1.026-.085 1.966-.256 2.822-.171.855-.494 1.595-.969 2.222-.475.628-1.121 1.112-1.938 1.454-.817.342-1.871.513-3.164.513-1.33 0-2.403-.171-3.22-.513-.817-.342-1.463-.826-1.938-1.454-.475-.627-.798-1.367-.969-2.223a14.412 14.412 0 0 1-.257-2.821V29.6h2.736v4.959c0 1.292.247 2.375.741 3.249.495.874 1.463 1.311 2.907 1.311 1.483 0 2.451-.427 2.907-1.282.457-.856.684-1.948.684-3.278v-4.845c0-1.976-.246-3.553-.74-4.731-.495-1.178-1.112-2.147-1.853-2.907a12.748 12.748 0 0 0-2.394-1.938 13.374 13.374 0 0 1-2.394-1.91c-.741-.74-1.358-1.671-1.853-2.793-.494-1.12-.74-2.65-.74-4.588V7.541c0-1.026.085-1.966.256-2.822.171-.855.494-1.595.969-2.223.475-.627 1.121-1.111 1.938-1.453.817-.342 1.89-.513 3.22-.513 1.293 0 2.347.171 3.164.513.817.342 1.463.826 1.938 1.454.475.627.798 1.367.969 2.223.171.855.256 1.795.256 2.821v4.389h-2.736zM58.523 41h-2.737V1.1h2.736v18.525h7.524V1.1h2.736V41h-2.736V22.133h-7.524V41zm25.23-1.881c1.445 0 2.423-.418 2.936-1.254.513-.836.77-1.919.77-3.249V7.484c0-1.33-.257-2.413-.77-3.249-.513-.836-1.491-1.254-2.935-1.254-1.445 0-2.423.418-2.936 1.254-.513.836-.77 1.919-.77 3.249v27.132c0 1.33.257 2.413.77 3.249.513.836 1.491 1.254 2.936 1.254zm0-38.589c1.255 0 2.3.171 3.135.513.837.342 1.492.817 1.967 1.425.475.608.817 1.34 1.026 2.194.209.856.314 1.796.314 2.822v27.132c0 1.026-.105 1.966-.314 2.822-.209.855-.551 1.586-1.026 2.194-.475.608-1.13 1.083-1.967 1.425-.836.342-1.88.513-3.135.513-1.254 0-2.298-.171-3.135-.513-.836-.342-1.491-.817-1.966-1.425-.475-.608-.817-1.34-1.026-2.194-.209-.856-.314-1.796-.314-2.822V7.484c0-1.026.105-1.966.314-2.822.209-.855.551-1.586 1.026-2.194.475-.608 1.13-1.083 1.966-1.425C81.456.701 82.5.53 83.754.53zm-73.63 57.4v-4.389c0-1.292-.238-2.375-.713-3.249-.475-.874-1.434-1.311-2.879-1.311-1.52 0-2.507.427-2.964 1.282-.456.856-.684 1.948-.684 3.278v3.306c0 1.672.247 2.983.741 3.933a8.46 8.46 0 0 0 1.853 2.422 18.928 18.928 0 0 0 2.394 1.825 11.23 11.23 0 0 1 2.394 2.108c.741.856 1.358 1.948 1.852 3.278.495 1.33.741 3.097.741 5.301v4.845c0 1.026-.085 1.966-.256 2.822-.171.855-.494 1.595-.969 2.222-.475.628-1.121 1.112-1.938 1.454-.817.342-1.871.513-3.164.513-1.33 0-2.403-.171-3.22-.513-.817-.342-1.463-.826-1.938-1.454-.475-.627-.798-1.367-.969-2.222a14.412 14.412 0 0 1-.257-2.822V75.6h2.736v4.959c0 1.292.247 2.375.741 3.249.495.874 1.463 1.311 2.907 1.311 1.483 0 2.451-.427 2.907-1.282.457-.856.684-1.948.684-3.278v-4.845c0-1.976-.246-3.553-.74-4.731-.495-1.178-1.112-2.147-1.853-2.907a12.748 12.748 0 0 0-2.394-1.938 13.374 13.374 0 0 1-2.394-1.91C2 63.488 1.383 62.557.888 61.436c-.494-1.122-.74-2.651-.74-4.589v-3.306c0-1.026.085-1.966.256-2.822.171-.855.494-1.595.969-2.223.475-.627 1.121-1.111 1.938-1.453.817-.342 1.89-.513 3.22-.513 1.293 0 2.347.171 3.164.513.817.342 1.463.826 1.938 1.453.475.628.798 1.368.969 2.223.171.856.256 1.796.256 2.822v4.389h-2.736zM33.813 87h-2.85l-1.254-9.576h-6.555L21.901 87h-2.793l5.7-39.9h3.306l5.7 39.9zM23.44 74.916h5.985l-2.964-23.427-3.02 23.427zm20.215-9.177L51.236 47.1h3.078l-8.436 19.779L54.713 87h-3.078l-7.98-18.924V87H40.92V47.1h2.736v18.639zM73.731 47.1v33.402c0 1.026-.094 1.976-.284 2.85-.19.874-.523 1.624-.998 2.251-.475.628-1.13 1.112-1.966 1.454-.837.342-1.881.513-3.136.513-1.33 0-2.403-.171-3.22-.513-.817-.342-1.463-.826-1.938-1.454-.475-.627-.798-1.377-.969-2.251a14.855 14.855 0 0 1-.256-2.85V47.1H63.7v33.402c0 1.33.227 2.432.683 3.306.457.874 1.444 1.311 2.965 1.311 1.52 0 2.507-.437 2.963-1.311.457-.874.684-1.976.684-3.306V47.1h2.736zm8.816 0h5.814c1.368 0 2.488.171 3.363.513.874.342 1.567.807 2.08 1.397.513.589.864 1.31 1.055 2.166.19.855.285 1.795.285 2.821v8.835c0 1.71-.38 3.173-1.14 4.389-.76 1.216-2.014 1.976-3.762 2.28L96.91 87H93.89a791.931 791.931 0 0 0-3.135-8.664 588.882 588.882 0 0 1-3.135-8.721h-2.337V87h-2.736V47.1zm2.736 20.007h2.85c1.672 0 2.802-.38 3.391-1.14.589-.76.884-1.805.884-3.135v-8.835c0-1.292-.285-2.327-.855-3.106-.57-.78-1.691-1.169-3.363-1.169h-2.907v17.385zM116.156 87h-2.85l-1.254-9.576h-6.555L104.243 87h-2.792l5.7-39.9h3.306l5.7 39.9zm-10.374-12.084h5.986l-2.965-23.427-3.02 23.427zm17.48-27.816h2.736V87h-2.737V47.1z" fill="#000" fill-rule="evenodd"/></svg>