<svg width="185" height="87" viewBox="0 0 185 87" xmlns="http://www.w3.org/2000/svg"><title>JUN MATSUMOTO Copy</title><path d="M74.16.1v33.573c0 1.064-.085 2.023-.256 2.878-.171.856-.494 1.577-.969 2.166-.475.59-1.111 1.045-1.91 1.369-.798.323-1.823.484-3.078.484-1.216 0-2.222-.171-3.02-.513-.799-.342-1.435-.807-1.91-1.397-.475-.589-.807-1.31-.998-2.165a13.017 13.017 0 0 1-.285-2.822V28.6h2.736v5.073c0 .646.048 1.244.143 1.795.095.552.266 1.026.513 1.425.247.4.598.703 1.054.913.457.209 1.045.313 1.767.313 1.445 0 2.385-.399 2.822-1.197.437-.798.655-1.881.655-3.249V.1h2.736zm21.584 0v33.402c0 1.026-.095 1.976-.285 2.85-.19.874-.523 1.624-.998 2.252-.475.627-1.13 1.111-1.966 1.453-.837.342-1.881.513-3.136.513-1.33 0-2.403-.171-3.22-.513-.817-.342-1.463-.826-1.938-1.454-.475-.627-.798-1.377-.969-2.251a14.855 14.855 0 0 1-.257-2.85V.1h2.737v33.402c0 1.33.227 2.432.683 3.306.457.874 1.444 1.311 2.965 1.311 1.52 0 2.507-.437 2.963-1.311.457-.874.684-1.976.684-3.306V.1h2.736zm11.151 6.384c.077 3.458.153 6.982.229 10.574.076 3.59.114 7.172.114 10.744V40h-2.68V.1h2.907l9.234 33.573a15540.2 15540.2 0 0 1-.227-10.659 506.5 506.5 0 0 1-.114-10.659V.1h2.678V40h-2.907l-9.234-33.516zM9.971 81.041L15.956 46.1h3.762V86h-2.622V71.807c0-1.406.02-3.059.057-4.959.039-1.9.076-3.847.114-5.843.038-1.995.076-3.913.114-5.757.038-1.843.076-3.41.114-4.702L11.282 86H8.603L2.39 50.546c.038 1.33.076 2.926.114 4.788.038 1.862.076 3.781.114 5.757l.114 5.785c.038 1.882.057 3.525.057 4.931V86H.167V46.1H3.93l5.985 34.941h.057zM41.53 86h-2.85l-1.254-9.576H30.87L29.616 86h-2.793l5.7-39.9h3.306l5.7 39.9zM31.155 73.916h5.985l-2.964-23.427-3.02 23.427zM52.396 86H49.66V48.722h-4.902V46.1h12.54v2.622h-4.902V86zm20.842-29.07v-4.389c0-1.292-.237-2.375-.712-3.249-.475-.874-1.434-1.311-2.879-1.311-1.52 0-2.507.427-2.964 1.282-.456.856-.684 1.948-.684 3.278v3.306c0 1.672.247 2.983.741 3.933a8.46 8.46 0 0 0 1.853 2.422 18.928 18.928 0 0 0 2.394 1.825 11.23 11.23 0 0 1 2.394 2.108c.741.856 1.358 1.948 1.852 3.278.495 1.33.741 3.097.741 5.301v4.845c0 1.026-.085 1.966-.256 2.822-.171.855-.494 1.595-.969 2.222-.475.628-1.121 1.112-1.938 1.454-.817.342-1.871.513-3.164.513-1.33 0-2.403-.171-3.22-.513-.817-.342-1.463-.826-1.938-1.454-.475-.627-.798-1.367-.969-2.222a14.412 14.412 0 0 1-.257-2.822V74.6H66v4.959c0 1.292.247 2.375.741 3.249.495.874 1.463 1.311 2.907 1.311 1.483 0 2.451-.427 2.907-1.282.457-.856.684-1.948.684-3.278v-4.845c0-1.976-.246-3.553-.74-4.731-.495-1.178-1.112-2.147-1.853-2.907a12.748 12.748 0 0 0-2.394-1.938 13.374 13.374 0 0 1-2.394-1.91c-.741-.74-1.358-1.671-1.853-2.793-.494-1.12-.74-2.65-.74-4.588v-3.306c0-1.026.085-1.966.256-2.822.171-.855.494-1.595.969-2.223.475-.627 1.121-1.111 1.938-1.453.817-.342 1.89-.513 3.22-.513 1.293 0 2.347.171 3.164.513.817.342 1.463.826 1.938 1.453.475.628.798 1.368.969 2.223.171.856.256 1.796.256 2.822v4.389h-2.736zM96.703 46.1v33.402c0 1.026-.095 1.976-.285 2.85-.19.874-.523 1.624-.998 2.251-.475.628-1.13 1.112-1.966 1.454-.837.342-1.881.513-3.135.513-1.33 0-2.404-.171-3.221-.513-.817-.342-1.463-.826-1.938-1.454-.475-.627-.798-1.377-.969-2.251a14.855 14.855 0 0 1-.257-2.85V46.1h2.737v33.402c0 1.33.227 2.432.683 3.306.457.874 1.444 1.311 2.965 1.311 1.52 0 2.507-.437 2.963-1.311.457-.874.684-1.976.684-3.306V46.1h2.737zm18.618 34.941l5.986-34.941h3.761V86h-2.621V71.807c0-1.406.019-3.059.056-4.959l.115-5.843c.038-1.995.076-3.913.114-5.757.037-1.843.076-3.41.114-4.702L116.632 86h-2.678l-6.213-35.454c.037 1.33.076 2.926.114 4.788l.114 5.757.114 5.785c.038 1.882.056 3.525.056 4.931V86h-2.621V46.1h3.761l5.986 34.941h.056zm24.719 3.078c1.444 0 2.422-.418 2.935-1.254.513-.836.77-1.919.77-3.249V52.484c0-1.33-.257-2.413-.77-3.249-.513-.836-1.491-1.254-2.935-1.254-1.445 0-2.423.418-2.936 1.254-.513.836-.77 1.919-.77 3.249v27.132c0 1.33.257 2.413.77 3.249.513.836 1.491 1.254 2.935 1.254zm0-38.589c1.254 0 2.298.171 3.135.513.836.342 1.491.817 1.966 1.425.475.608.817 1.34 1.026 2.194.209.856.314 1.796.314 2.822v27.132c0 1.026-.105 1.966-.314 2.822-.209.855-.551 1.586-1.026 2.194-.475.608-1.13 1.083-1.966 1.425-.837.342-1.881.513-3.136.513-1.254 0-2.298-.171-3.134-.513-.837-.342-1.492-.817-1.967-1.425-.475-.608-.817-1.34-1.026-2.195-.209-.855-.314-1.795-.314-2.821V52.484c0-1.026.105-1.966.314-2.822.209-.855.551-1.586 1.026-2.194.475-.608 1.13-1.083 1.967-1.425.836-.342 1.88-.513 3.135-.513zM160.369 86h-2.737V48.722h-4.901V46.1h12.54v2.622h-4.902V86zm17.593-1.881c1.444 0 2.422-.418 2.935-1.254.513-.836.77-1.919.77-3.249V52.484c0-1.33-.257-2.413-.77-3.249-.513-.836-1.491-1.254-2.935-1.254-1.445 0-2.423.418-2.936 1.254-.513.836-.77 1.919-.77 3.249v27.132c0 1.33.257 2.413.77 3.249.513.836 1.491 1.254 2.935 1.254zm0-38.589c1.254 0 2.298.171 3.135.513.836.342 1.491.817 1.966 1.425.475.608.817 1.34 1.026 2.194.209.856.314 1.796.314 2.822v27.132c0 1.026-.105 1.966-.314 2.822-.209.855-.551 1.586-1.026 2.194-.475.608-1.13 1.083-1.966 1.425-.837.342-1.881.513-3.136.513-1.254 0-2.298-.171-3.135-.513-.836-.342-1.491-.817-1.966-1.425-.475-.608-.817-1.34-1.026-2.195-.209-.855-.314-1.795-.314-2.821V52.484c0-1.026.105-1.966.314-2.822.209-.855.551-1.586 1.026-2.194.475-.608 1.13-1.083 1.966-1.425.837-.342 1.881-.513 3.136-.513z" fill="#000" fill-rule="evenodd"/></svg>