<svg width="113" height="87" viewBox="0 0 113 87" xmlns="http://www.w3.org/2000/svg"><title>MASAKI AIBA Copy</title><path d="M10.734 36.041L16.72 1.1h3.762V41H17.86V26.807c0-1.406.02-3.059.057-4.959l.114-5.842c.038-1.996.076-3.914.114-5.758.039-1.843.076-3.41.114-4.702L12.045 41H9.366L3.153 5.546c.039 1.33.076 2.926.114 4.788.039 1.862.076 3.781.114 5.757l.114 5.785c.039 1.882.057 3.525.057 4.931V41H.93V1.1h3.762l5.985 34.941h.057zM42.292 41h-2.85l-1.254-9.576h-6.555L30.38 41h-2.793l5.7-39.9h3.306l5.7 39.9zM31.918 28.916h5.985L34.94 5.489l-3.02 23.427zm26.6-16.986V7.541c0-1.292-.238-2.375-.713-3.249-.475-.874-1.434-1.311-2.879-1.311-1.52 0-2.507.427-2.964 1.282-.456.856-.684 1.948-.684 3.278v3.306c0 1.672.247 2.983.741 3.933a8.46 8.46 0 0 0 1.853 2.423 18.928 18.928 0 0 0 2.394 1.823 11.23 11.23 0 0 1 2.394 2.11c.741.855 1.358 1.947 1.852 3.277.495 1.33.741 3.097.741 5.301v4.845c0 1.026-.085 1.966-.256 2.822-.171.855-.494 1.595-.969 2.222-.475.628-1.121 1.112-1.938 1.454-.817.342-1.871.513-3.164.513-1.33 0-2.403-.171-3.22-.513-.817-.342-1.463-.826-1.938-1.454-.475-.627-.798-1.367-.969-2.223a14.412 14.412 0 0 1-.257-2.821V29.6h2.736v4.959c0 1.292.247 2.375.741 3.249.495.874 1.463 1.311 2.907 1.311 1.483 0 2.451-.427 2.907-1.282.457-.856.684-1.948.684-3.278v-4.845c0-1.976-.246-3.553-.74-4.731-.495-1.178-1.112-2.147-1.853-2.907a12.748 12.748 0 0 0-2.394-1.938 13.374 13.374 0 0 1-2.394-1.91c-.741-.74-1.358-1.671-1.853-2.793-.494-1.12-.74-2.65-.74-4.588V7.541c0-1.026.085-1.966.256-2.822.171-.855.494-1.595.969-2.223.475-.627 1.121-1.111 1.938-1.453.817-.342 1.89-.513 3.22-.513 1.293 0 2.347.171 3.164.513.817.342 1.463.826 1.938 1.454.475.627.798 1.367.969 2.223.171.855.256 1.795.256 2.821v4.389h-2.736zM82.21 41h-2.85l-1.254-9.576H71.55L70.296 41h-2.793l5.7-39.9h3.306l5.7 39.9zM71.836 28.916h5.984L74.858 5.489l-3.022 23.427zm20.215-9.177L99.63 1.1h3.079l-8.436 19.779L103.109 41h-3.078l-7.98-18.924V41h-2.736V1.1h2.736v18.639zM109.644 1.1h2.735V41h-2.736V1.1zM38.291 87h-2.85l-1.254-9.576h-6.555L26.38 87h-2.793l5.7-39.9h3.306l5.7 39.9zM27.918 74.916h5.985L30.94 51.489l-3.02 23.427zM45.398 47.1h2.735V87h-2.736V47.1zm11.835 0h5.928c1.33 0 2.423.133 3.278.399s1.539.655 2.052 1.168c.513.514.874 1.15 1.083 1.91.209.76.314 1.653.314 2.679v8.379c0 1.368-.257 2.48-.77 3.334-.513.856-1.377 1.473-2.593 1.853 1.33.38 2.27 1.007 2.821 1.881.551.874.826 2.033.826 3.477v8.265c0 1.026-.094 1.947-.284 2.765-.19.817-.532 1.5-1.026 2.052-.495.55-1.178.978-2.052 1.282-.875.304-1.995.456-3.364.456h-6.212V47.1zm2.736 37.278h3.306c1.673 0 2.784-.332 3.335-.998.551-.665.826-1.662.826-2.992v-8.322c0-1.216-.284-2.175-.855-2.879-.57-.703-1.652-1.054-3.248-1.054h-3.364v16.245zm0-18.753h3.021c1.597 0 2.689-.351 3.278-1.055.589-.703.883-1.662.883-2.878v-8.094c0-1.33-.284-2.308-.855-2.935-.57-.628-1.633-.941-3.192-.941H59.97v15.903zM91.415 87h-2.85l-1.254-9.576h-6.555L79.5 87h-2.793l5.7-39.9h3.306l5.7 39.9zM81.04 74.916h5.985L84.06 51.489 81.04 74.916z" fill="#000" fill-rule="evenodd"/></svg>